<svg xmlns="http://www.w3.org/2000/svg" width="50" height="50.691" viewBox="15.94 13.889 456.533 462.844" xmlns:v="https://vecta.io/nano"><path d="M15.94 85.599c0-39.605 32.106-71.711 71.711-71.711h313.112 0c39.605 0 71.711 32.106 71.711 71.711v319.423h0c0 39.605-32.106 71.711-71.711 71.711H87.651h0c-39.605 0-71.711-32.106-71.711-71.711z" fill="#a7d4ff" opacity=".41"/><path d="M330.957 76.499H211.675c-11.972 0-21.688 9.705-21.688 21.688h119.282v86.75h86.75v173.501h-75.907v21.688h75.907c11.982 0 21.688-9.705 21.688-21.688V163.25zm0 86.75v-56.084l56.073 56.084h-56.073zM92.394 119.875c-11.982 0-21.688 9.716-21.688 21.688v260.251c0 11.982 9.705 21.688 21.688 21.688h184.344c11.982 0 21.688-9.705 21.688-21.688V206.625l-86.75-86.761H92.394zm184.344 281.939H92.394V141.562h97.594v86.75h86.75v173.501zm-65.063-195.188v-56.084l56.073 56.084h-56.073z" opacity=".82"/></svg>