<svg xmlns="http://www.w3.org/2000/svg" width="50" height="50" viewBox="0 0 500 500" xmlns:v="https://vecta.io/nano"><path d="M15.94 86.276c0-39.605 32.106-71.711 71.711-71.711h313.112 0c39.605 0 71.711 32.106 71.711 71.711v319.423h0c0 39.605-32.106 71.711-71.711 71.711H87.651h0c-39.605 0-71.711-32.106-71.711-71.711z" fill="#f2c30c" opacity=".41"/><path d="M126.203 108.347h220.171v151.37h27.52V80.827H98.679v330.257H250v-27.52H126.203zm27.521 27.521h165.13v27.52h-165.13zm0 55.045H291.33v27.52H153.724zm0 55.041h82.565v27.52h-82.565zm178.887 27.524c-38 0-68.805 30.805-68.805 68.805s30.805 68.805 68.805 68.805 68.805-30.805 68.805-68.805-30.802-68.805-68.805-68.805zm0 110.086c-22.764 0-41.281-18.52-41.281-41.281s18.52-41.281 41.281-41.281 41.281 18.52 41.281 41.281-18.516 41.281-41.281 41.281zm10.324-69.818h-20.642v32.837l26.109 25.872 14.528-14.66-19.995-19.814z" fill="#0f1f3c"/></svg>