<svg xmlns="http://www.w3.org/2000/svg" width="50" height="50" viewBox="14.143 14.143 471.714 471.714" xmlns:v="https://vecta.io/nano"><path d="M14.143 114.209c0-55.265 44.801-100.066 100.066-100.066h271.583 0c55.265 0 100.066 44.801 100.066 100.066v271.583h0c0 55.265-44.801 100.066-100.066 100.066H114.209h0c-55.265 0-100.066-44.801-100.066-100.066z" fill="#4bb543" opacity=".42"/><path d="M122.665 108.513h226.382v113.191h28.297V80.212H94.364v339.576h155.64v-28.301H122.665zm205.153 129.695L250 277.121v34.139a112.65 112.65 0 0 0 62.269 100.756l15.549 7.773 15.549-7.773a112.65 112.65 0 0 0 62.269-100.756v-34.139l-77.818-38.913zm49.521 73.048c0 32.158-17.866 61.066-46.627 75.446l-2.894 1.447-2.894-1.447c-28.761-14.38-46.627-43.292-46.627-75.446v-16.648l49.521-24.761 49.521 24.761v16.648zm-70.904 4.982l-14.056 15.905 36.077 31.891 44.078-50.717-16.013-13.928-30.038 34.564zm-155.477-165.28h169.788v28.297H150.958zm0 70.746h113.191V250H150.958zm0 70.742h56.597v28.297h-56.597z" fill="#0f1f3c"/></svg>